<svg xmlns="http://www.w3.org/2000/svg" width="512" height="512" viewBox="0 0 512 512" xml:space="preserve">
	<path
		d="M432.291 51.664h-80.132c-29.047 11.519-35.487-8.013-96.159-8.013s-67.11 19.532-96.159 8.013H79.71L69.026 252.995c6.678 79.13 55.759 122.201 94.489 137.893h184.97c38.731-15.692 87.812-58.763 94.489-137.893z"
		fill="#f5dcb4" data-original="#f5dcb4" />
	<path
		d="M352.159 51.664c90.224 27.006 41.106 166.274 99.202 226.473 8.34 8.642 23.076 4.803 26.556-6.691 4.599-15.186 9.193-39.213 8.462-73.542-1.002-47.078 18.029-50.083 18.029-50.083S480.37 35.637 408.251 35.637c-24.04 0-56.092 16.027-56.092 16.027"
		fill="#965a50" data-original="#965a50" />
	<path
		d="M171.862 260.007c-15.425 0-28.046-12.62-28.046-28.046v-16.026c0-15.425 12.62-28.046 28.046-28.046s28.046 12.62 28.046 28.046v16.026c0 15.425-12.62 28.046-28.046 28.046"
		fill="#4b3f4e" data-original="#4b3f4e" />
	<path
		d="M171.862 187.888c-1.371 0-2.687.214-4.007.407v39.659c0 8.851 7.175 16.026 16.026 16.026 8.852 0 16.026-7.175 16.026-16.026v-12.02c.001-15.425-12.619-28.046-28.045-28.046"
		fill="#5d5360" data-original="#5d5360" />
	<circle cx="171.867" cy="207.924" r="12.016" fill="#fff" data-original="#ffffff" />
	<path
		d="M340.139 260.007c-15.425 0-28.046-12.62-28.046-28.046v-16.026c0-15.425 12.62-28.046 28.046-28.046s28.046 12.62 28.046 28.046v16.026c0 15.425-12.621 28.046-28.046 28.046"
		fill="#4b3f4e" data-original="#4b3f4e" />
	<path
		d="M340.139 187.888c-1.372 0-2.687.214-4.007.407v39.659c0 8.851 7.175 16.026 16.026 16.026 8.852 0 16.026-7.175 16.026-16.026v-12.02c.001-15.425-12.62-28.046-28.045-28.046"
		fill="#5d5360" data-original="#5d5360" />
	<circle cx="340.136" cy="207.924" r="12.016" fill="#fff" data-original="#ffffff" />
	<path
		d="M451.361 278.137c8.34 8.642 23.077 4.803 26.557-6.692 2.638-8.71 5.239-20.435 6.869-35.236-15.752-7.852-29.2-32.905-37.472-75.366-15.024-77.127-36.06-120.198-95.157-109.18 90.224 27.006 41.107 166.274 99.203 226.474"
		fill="#824641" data-original="#824641" />
	<path
		d="M163.515 390.889h37.98s-66.695-44.741-77.712-123.87c-21.434-153.939 19.365-199.996 54.654-211.75-5.59.189-11.397-.751-18.594-3.605H79.71L69.026 252.995c6.678 79.13 55.759 122.201 94.489 137.894"
		fill="#e7c9a5" data-original="#e7c9a5" />
	<path
		d="M159.842 51.664C69.618 78.67 118.736 217.938 60.64 278.137c-8.34 8.642-23.076 4.803-26.556-6.691-4.599-15.186-9.193-39.213-8.462-73.542 1.002-47.078-18.029-50.083-18.029-50.083S31.631 35.637 103.75 35.637c24.04 0 56.092 16.027 56.092 16.027"
		fill="#965a50" data-original="#965a50" />
	<path
		d="M157.16 50.388c-8.131-3.773-33.493-14.751-53.41-14.751-72.119 0-96.159 112.185-96.159 112.185s19.031 3.005 18.029 50.083c-.013.629.005 1.195-.005 1.816C71.728 24.781 142.585 44.245 157.16 50.388"
		fill="#824641" data-original="#824641" />
	<ellipse cx="255.996" cy="396.235" rx="88.148" ry="64.106" fill="#bc8e78" data-original="#bc8e78" />
	<path d="M215.934 396.231v40.066c0 22.128 17.937 40.066 40.066 40.066s40.066-17.938 40.066-40.066v-40.066z"
		fill="#ff8087" data-original="#ff8087" />
	<path
		d="M215.934 435.566c14.661-1.675 28.462-6.351 40.066-13.715 11.604 7.364 25.405 12.04 40.066 13.715V396.23h-80.132z"
		fill="#e6646e" data-original="#e6646e" />
	<path
		d="M308.086 324.112H203.915c-33.192 0-60.099 19.732-60.099 44.073 0 24.34 26.907 44.073 60.099 44.073 16.715 0 31.809-5.015 42.691-13.098 2.755-2.046 6.076-3.069 9.393-3.068 3.322 0 6.644 1.023 9.398 3.068 10.881 8.082 25.976 13.098 42.69 13.098 33.192 0 60.099-19.732 60.099-44.073-.001-24.341-26.909-44.073-60.1-44.073"
		fill="#d4af91" data-original="#d4af91" />
	<path
		d="M256 292.06c26.553 0 48.079 14.351 48.079 32.053 0 17.072-20.207 26.061-34.789 32.708a32 32 0 0 1-26.579 0c-14.584-6.647-34.789-15.636-34.789-32.708-.001-17.703 21.525-32.053 48.078-32.053"
		fill="#5d5360" data-original="#5d5360" />
	<path
		d="M231.71 315.347c-1.121-10.085 5.984-20.869 5.984-20.869-17.47 4.802-29.773 16.255-29.773 29.634 0 17.072 20.207 26.061 34.789 32.708a32 32 0 0 0 26.579 0c3.136-1.429 6.533-2.978 9.932-4.681-19.715-3.487-45.256-16.508-47.511-36.792"
		fill="#4b3f4e" data-original="#4b3f4e" />
	<path
		d="M362.265 197.138a7.497 7.497 0 0 0-3.553 9.99 20.3 20.3 0 0 1 1.975 8.807v16.026c0 11.331-9.219 20.549-20.548 20.549-11.331 0-20.549-9.219-20.549-20.549v-16.026c0-11.331 9.219-20.549 20.549-20.549a7.498 7.498 0 0 0 0-14.994c-19.599 0-35.544 15.945-35.544 35.544v16.026c0 19.599 15.945 35.544 35.544 35.544s35.543-15.945 35.543-35.544v-16.026c0-5.33-1.154-10.458-3.427-15.243a7.5 7.5 0 0 0-9.99-3.555m-168.277 0a7.497 7.497 0 0 0-3.553 9.99 20.3 20.3 0 0 1 1.975 8.807v16.026c0 11.331-9.219 20.549-20.549 20.549s-20.548-9.219-20.548-20.549v-16.026c0-11.331 9.219-20.549 20.548-20.549a7.498 7.498 0 0 0 0-14.994c-19.599 0-35.543 15.945-35.543 35.544v16.026c0 19.599 15.944 35.544 35.543 35.544s35.544-15.945 35.544-35.544v-16.026c0-5.33-1.154-10.458-3.427-15.243a7.5 7.5 0 0 0-9.99-3.555"
		data-original="#000000" />
	<path
		d="M511.74 146.251c-.254-1.188-6.409-29.411-21.757-58.062-21.044-39.285-49.307-60.049-81.732-60.049-24.426 0-55.284 14.774-59.081 16.639-12.675 4.968-19.89 3.031-32.914-.481-12.744-3.437-30.199-8.144-60.256-8.144s-47.511 4.707-60.256 8.144c-13.023 3.513-20.238 5.45-32.914.481-3.797-1.864-34.655-16.639-59.081-16.639-32.424 0-60.687 20.764-81.732 60.049C6.669 116.84.515 145.064.26 146.251c-.465 2.169-.4 4.389.965 6.139 1.316 1.686 2.863 2.687 4.959 2.826 1.603.688 12.701 6.773 11.941 42.529-.771 36.198 4.35 61.241 8.783 75.874 2.443 8.067 8.828 14.072 17.079 16.062 1.866.451 3.74.671 5.589.671 6.169 0 12.063-2.453 16.459-7.009.276-.286.537-.584.809-.873 10.275 48.897 43.07 88.108 73.642 103.725 3.472 7.191 9.048 13.734 16.5 19.199a67 67 0 0 0 6.04 3.92c6.557 18.666 23.614 41.598 52.426 51.809 8.374 13.627 23.416 22.737 40.55 22.737s32.177-9.11 40.551-22.737c28.829-10.21 45.791-32.938 52.429-51.811a67 67 0 0 0 6.036-3.918c7.452-5.465 13.028-12.008 16.5-19.199 30.572-15.617 63.367-54.828 73.642-103.725.272.289.532.587.808.873 4.396 4.556 10.289 7.009 16.459 7.009 1.849 0 3.724-.22 5.589-.671 8.251-1.991 14.636-7.996 17.079-16.062 4.431-14.634 9.552-39.676 8.783-75.874-.761-35.757 10.338-41.842 11.941-42.529 2.096-.139 3.644-1.14 4.959-2.826 1.361-1.749 1.427-3.969.962-6.139M47.504 275.105c-3.026-.73-5.36-2.91-6.245-5.832-4.116-13.593-8.871-36.981-8.142-71.209.745-35.013-9.327-48.815-16.809-54.227 5.856-21.863 30.908-100.702 87.442-100.702 11.818 0 26.104 4.37 36.827 8.43-40.277 22.113-46.327 71.036-52.2 118.525-4.777 38.632-9.716 78.579-33.131 102.841-2.857 2.959-6.366 2.506-7.742 2.174m136.012 142.272a88 88 0 0 0 20.399 2.377c1.516 0 3.023-.052 4.522-.127v16.669c0 1.804.11 3.582.307 5.334-11.261-6.445-19.61-15.308-25.228-24.253M256 468.865c-17.958 0-32.569-14.611-32.569-32.569v-18.707c9.207-2.098 17.739-5.687 25.072-10.6v21.294a7.497 7.497 0 1 0 14.994 0v-21.294c7.331 4.913 15.865 8.502 25.072 10.6v18.707c0 17.959-14.61 32.569-32.569 32.569m47.254-27.215c.198-1.758.31-3.543.31-5.353v-16.669c1.499.075 3.006.127 4.522.127a88 88 0 0 0 20.424-2.384c-5.619 8.985-13.96 17.837-25.256 24.279m175.63-243.586c.729 34.227-4.026 57.616-8.142 71.209-.885 2.922-3.22 5.102-6.245 5.832-1.376.331-4.885.785-7.741-2.174-23.414-24.262-28.354-64.209-33.131-102.841-3.185-25.755-6.478-52.386-15.297-74.421a7.496 7.496 0 0 0-9.746-4.174 7.495 7.495 0 0 0-4.174 9.746c8.097 20.231 11.128 44.741 14.337 70.689 4.099 33.143 8.317 67.191 23.917 93.747-3.228 29.998-15.668 53.28-25.644 67.623-9.161 13.171-20.179 24.504-31.411 32.511-.771-13.313-8.008-25.609-20.589-34.835-12.021-8.816-27.705-13.85-44.399-14.314-4.77-18.495-27.043-32.098-54.617-32.098s-49.848 13.604-54.617 32.099c-3.566.1-7.118.4-10.592.917A7.498 7.498 0 0 0 193 332.411a74 74 0 0 1 8.435-.755c4.619 16.7 24.138 25.596 37.62 31.737l.549.25a39.53 39.53 0 0 0 32.799 0l.549-.25c13.482-6.143 33.002-15.037 37.62-31.739 27.856.905 50.12 16.943 50.12 36.532 0 20.168-23.597 36.576-52.602 36.576-14.559 0-28.133-4.126-38.22-11.619-8.164-6.064-19.567-6.063-27.731 0-10.088 7.492-23.661 11.619-38.22 11.619-29.004 0-52.602-16.408-52.602-36.576 0-8.81 4.679-17.362 13.176-24.08a7.497 7.497 0 0 0-9.3-11.762c-11.452 9.056-18.057 20.862-18.797 33.466-11.231-8.007-22.248-19.339-31.408-32.509-9.975-14.343-22.416-37.625-25.644-67.623 15.6-26.555 19.819-60.603 23.917-93.746 3.264-26.39 6.346-51.316 14.759-71.727 8.704-21.117 21.993-34.063 41.661-40.601 15.973 5.638 26.646 2.767 39.972-.828 12.599-3.398 28.281-7.627 56.351-7.627 28.071 0 43.751 4.228 56.351 7.627 7.905 2.132 14.874 4.012 22.571 4.012 5.276 0 10.898-.889 17.393-3.18 10.637 3.533 19.335 8.88 26.477 16.348a7.497 7.497 0 0 0 10.837-10.363c-5.301-5.543-11.407-10.224-18.259-14.007 10.729-4.066 25.044-8.45 36.881-8.45 56.435 0 81.559 78.845 87.437 100.706-7.486 5.413-17.553 19.215-16.808 54.222M296.583 324.112c0 12.036-17.253 19.896-29.851 25.635l-.551.251a24.53 24.53 0 0 1-20.361 0l-.551-.251c-12.597-5.739-29.851-13.599-29.851-25.635 0-13.31 18.584-24.555 40.582-24.555s40.583 11.245 40.583 24.555"
		data-original="#000000" />
</svg>