<svg xmlns="http://www.w3.org/2000/svg" version="1.1" xmlns:xlink="http://www.w3.org/1999/xlink" width="512"
    height="512" x="0" y="0" viewBox="0 0 128 128" style="enable-background:new 0 0 512 512" xml:space="preserve"
    class="hovered-paths">
    <g>
        <path fill="#d50000"
            d="M64 76.3s-22.7-9-36.3 2.4-21.3-1.8-21.3-1.8 0 15.2 11.3 20c0 0 7.7 13.2 20 7.2 0 0 17.5 12 26-3.2z"
            opacity="1" data-original="#d50000" class="hovered-path"></path>
        <path fill="#fff"
            d="M64 76.3v3.1c-1.2-.4-23-8.6-36.2 2.4-12 10-19.4.9-21-1.4-.3-2.1-.3-3.6-.3-3.6s7.8 13.2 21.4 1.9C41.3 67.4 64 76.3 64 76.3z"
            opacity=".6"></path>
        <path
            d="m64 76.3-.4 24.6c-8.5 15.1-26 3.2-26 3.2-12.3 6-20-7.2-20-7.2C6.4 92.1 6.4 77 6.4 76.9c0 0 .2.3.6.8 1 4.9 3.6 12.1 10.7 15.1 0 0 7.7 13.2 20 7.2 0 0 17.5 12 26-3.2z"
            opacity=".3"></path>
        <path fill="#d50000"
            d="M64 76.3s22.7-9 36.3 2.4 21.4-1.9 21.4-1.9 0 15.2-11.3 20c0 0-7.7 13.2-20 7.2 0 0-17.5 12-26-3.2z">
        </path>
        <path fill="#fff"
            d="M121.1 81.5c.1-1.4.1-2.3.1-2.3s-7.4 13.5-21.3 2.5C87.2 71.6 67.3 78.9 64 80.1v-3.8s22.7-9 36.3 2.4 21.4-1.9 21.4-1.9c-.1.1-.1 2-.6 4.7z"
            opacity=".6"></path>
        <path
            d="M121.6 76.9c0 .1 0 15.2-11.3 20 0 0-7.7 13.2-20 7.2 0 0-17.5 12-26-3.2L64 76.3h.1l.3 20.5c8.5 15.1 26 3.2 26 3.2 12.3 6 20-7.2 20-7.2 7.2-3 9.8-10.2 10.7-15.1.3-.5.5-.8.5-.8z"
            opacity=".3"></path>
        <path
            d="M51.2 109.5c-6.2 0-12-3.3-13.6-4.3-11.6 5.2-19.4-5.6-20.6-7.5C5.5 92.5 5.4 77.5 5.4 76.9c0-.5.3-.8.7-1 .4-.1.9.1 1.1.5 0 0 3 5 8.2 5.8 3.6.6 7.6-.8 11.6-4.2 14-11.7 36.4-3 37.4-2.6.4.2.6.5.6.9l-.4 24.6c0 .2 0 .3-.1.5-2.4 4.2-5.6 6.8-9.7 7.8-1.2.2-2.4.3-3.6.3zm-13.5-6.4c.2 0 .4.1.6.2.1.1 8.5 5.7 16.1 4 3.4-.8 6.2-3 8.3-6.6L63 77c-3.7-1.3-22.9-7.3-34.6 2.5-4.6 3.8-9 5.4-13.3 4.7-3.3-.6-5.8-2.4-7.4-4.1.7 4.6 2.9 12.7 10.4 15.8.2.1.4.2.5.4.3.5 7.4 12.3 18.7 6.8z">
        </path>
        <path
            d="M76.8 109.5c-1.2 0-2.4-.1-3.6-.4-4.1-.9-7.3-3.6-9.7-7.8-.1-.1-.1-.3-.1-.5L63 76.3c0-.4.2-.8.6-.9 1-.4 23.4-9.1 37.3 2.6 4.1 3.4 8 4.9 11.6 4.2 5.2-.9 8.2-5.8 8.2-5.8.2-.4.7-.6 1.1-.5s.7.5.7 1c0 .6-.1 15.6-11.6 20.8-1.3 1.9-9 12.8-20.6 7.5-1.6 1.1-7.3 4.3-13.5 4.3zm-11.4-8.9c2.1 3.6 4.9 5.8 8.3 6.6 7.6 1.8 16-3.9 16.1-4 .3-.2.7-.2 1-.1 11.3 5.5 18.4-6.3 18.7-6.8.1-.2.3-.3.5-.4 7.5-3.2 9.7-11.3 10.4-15.8-1.6 1.6-4.1 3.5-7.4 4.1-4.2.7-8.7-.8-13.3-4.7C87.9 69.7 68.8 75.7 65 77z">
        </path>
        <path fill="#eee"
            d="M97.5 99.9c-2.6 1.1-5.4 1.4-8.3 1.1-10.3-1-20.7-9.3-20.7-9.3-1.6-5.7 4.3-4.9 4.3-4.9s10.7 3.6 16 2.3l1.8-.3c7.9-.5 11.6 9 6.9 11.1z">
        </path>
        <path fill="#757575" d="M97.5 99.9c-2.6 1.1-5.4 1.4-8.3 1.1-2.2-5.4-.5-9.6 1.4-12.1 7.9-.6 11.6 8.9 6.9 11z">
        </path>
        <path
            d="M97.5 99.9c-2.6 1.1-5.4 1.4-8.3 1.1-10.3-1-20.7-9.3-20.7-9.3-.5-1.8-.3-2.9.2-3.6 2.3 1.7 11.3 8 20.1 8.9 2.8.3 5.7 0 8.3-1.1.9-.4 1.5-1.1 1.8-2 1.2 2.4.8 5-1.4 6z"
            opacity=".3"></path>
        <path
            d="M91.3 102.1c-11.1 0-22.8-9.2-23.4-9.7-.2-.1-.3-.3-.3-.5-.6-2-.4-3.6.6-4.7 1.6-1.8 4.5-1.5 4.8-1.4h.2c.1 0 10.5 3.5 15.5 2.3 5.8-1.4 10.3 2 11.6 6.1 1 2.9.1 5.6-2.3 6.6-2.2.9-4.5 1.3-6.7 1.3zM69.4 91c2.1 1.6 17.1 12.5 27.7 7.9 1.7-.7 1.7-2.6 1.2-4.2-.9-2.6-4-6-9.3-4.7-5.3 1.2-15.3-1.9-16.5-2.3-.6-.1-2.2 0-2.9.8-.4.5-.5 1.4-.2 2.5z">
        </path>
        <path fill="#eee" d="m80 112.1.7-.3c3.2-1.2 4.8-4.8 3.6-8L79 89.7l-12.3 4.6 5.3 14.2c1.2 3.2 4.8 4.8 8 3.6z">
        </path>
        <path
            d="M83.9 109c-.7 1.3-1.8 2.3-3.3 2.8l-.7.3c-3.2 1.2-6.8-.4-8-3.6l-5.3-14.2 3.2-1.2 4.8 12.8c1.2 3.2 4.8 4.8 8 3.6l.7-.3c.3 0 .5-.1.6-.2z"
            opacity=".3"></path>
        <path
            d="M77.8 113.5c-2.9 0-5.7-1.8-6.8-4.7l-5.3-14.2c-.2-.5.1-1.1.6-1.3l12.3-4.6c.2-.1.5-.1.8 0 .2.1.4.3.5.6l5.3 14.2a7 7 0 0 1-.2 5.5c-.8 1.8-2.2 3.1-4 3.8l-.7.3c-.8.2-1.6.4-2.5.4zM68 94.9l5 13.2c.5 1.3 1.5 2.3 2.7 2.9 1.3.6 2.7.6 4 .1l.7-.3c1.3-.5 2.3-1.5 2.9-2.7s.6-2.7.1-4l-5-13.2z">
        </path>
        <path fill="#eee"
            d="m47.2 112.1-.7-.3c-3.2-1.2-4.8-4.8-3.6-8l5.3-14.2 12.3 4.6-5.3 14.2c-1.2 3.3-4.8 4.9-8 3.7z"></path>
        <path
            d="M43.3 109c.7 1.3 1.8 2.3 3.3 2.8l.7.3c3.2 1.2 6.8-.4 8-3.6l5.3-14.2-3.2-1.2-4.8 12.8c-1.2 3.2-4.8 4.8-8 3.6l-.7-.3c-.3 0-.5-.1-.6-.2z"
            opacity=".3"></path>
        <path
            d="M49.4 113.5c-.8 0-1.7-.1-2.5-.5l-.7-.3c-3.7-1.4-5.6-5.6-4.2-9.3l5.3-14.2c.2-.5.8-.8 1.3-.6l12.3 4.6c.2.1.4.3.6.5.1.2.1.5 0 .8l-5.3 14.2c-1.1 3-3.9 4.8-6.8 4.8zm-1.8-2.3c1.3.5 2.7.4 4-.1 1.3-.6 2.2-1.6 2.7-2.9l5-13.2-10.5-3.9-5 13.2c-.5 1.3-.4 2.7.1 4s1.6 2.2 2.9 2.7z">
        </path>
        <path fill="#757575" d="M45.8 73.8s-9.1 1.8-11 8.7 6.7 13.2 6.7 13.2l11-4.5 3.3-12.9-1.6-5.3z"></path>
        <path
            d="m41.4 96.9-.5-.3c-.4-.3-9.3-6.8-7.1-14.3 2.1-7.4 11.4-9.3 11.8-9.4h.1l9.1-1 2 6.5L53.3 92zM46 74.8c-.6.1-8.5 2-10.2 8-1.5 5.3 4.3 10.5 5.9 11.8l10-4.1 3.1-12.1-1.3-4.3z">
        </path>
        <path
            d="M43.1 85c-.6-.1-1-.5-1-1.1.1-.7-.1-1.5-.4-1.7-.5-.2-.8-.8-.6-1.3s.8-.8 1.3-.6c1.9.7 1.7 3.4 1.6 3.7.1.6-.4 1-.9 1z">
        </path>
        <path fill="#757575" d="M82.2 73.8s9.1 1.8 11 8.7-6.7 13.2-6.7 13.2l-11-4.5-3.3-12.9 1.7-5.4z"></path>
        <path
            d="M86.6 96.9 74.7 92l-3.5-13.6 2-6.5 9.2 1c.4.1 9.7 2 11.8 9.4 2.2 7.5-6.7 14-7.1 14.3zm-10.2-6.4 10 4.1c1.7-1.3 7.4-6.5 5.9-11.8-1.7-6-9.6-7.9-10.2-8l-7.5-.8-1.3 4.3z">
        </path>
        <path
            d="M84.9 85c-.5 0-.9-.4-1-.9 0-.3-.2-3 1.6-3.7.5-.2 1.1 0 1.3.6.2.5 0 1.1-.6 1.3-.3.1-.4 1-.4 1.7.1.5-.3 1-.9 1z">
        </path>
        <path fill="#757575"
            d="m61.9 35.1-22.3 7.8c-2.2-3-3.7-5.9-4.7-8.6-4.3-11.1-.7-18.8-.7-18.8 7.7.6 13.4 3.2 17.6 6.3 7.7 5.8 10.1 13.3 10.1 13.3z">
        </path>
        <path fill="#fff"
            d="M59.7 30.6c-1.5-2-3.5-4.2-6.2-6.2-4.1-3.1-9.9-5.7-17.6-6.3 0 0-3.6 7.8.7 18.8.8 1.9 1.7 4 3 6.1-2.2-3-3.7-5.9-4.7-8.6-4.3-11.1-.7-18.8-.7-18.8 7.7.6 13.4 3.2 17.6 6.3 3.8 2.8 6.3 6.1 7.9 8.7z"
            opacity=".3"></path>
        <path fill="#757575"
            d="m61.9 35.1-22.2 7.8c-1.3-2.1-2.3-4.1-3-6.1-4.4-11-.8-18.8-.8-18.8 7.7.6 13.4 3.2 17.6 6.3 2.7 2 4.7 4.2 6.2 6.2v.1c1.6 2.6 2.2 4.5 2.2 4.5z">
        </path>
        <path fill="#757575"
            d="m63.6 37.7-22.3 7.8c-.6-.9-1.2-1.7-1.7-2.6-1.3-2.1-2.3-4.1-3-6.1-4.3-11-.7-18.8-.7-18.8 7.7.6 13.4 3.2 17.6 6.3 2.7 2 4.7 4.2 6.2 6.2v.1c2.9 3.9 3.9 7.1 3.9 7.1z">
        </path>
        <path fill="#e57373" d="M56.8 33.3c-2.2-4.1-7.7-11.9-19.6-14.1-.7 3.6-1.1 10.8 4.2 19.5z"></path>
        <path
            d="M41.2 39.7c-.3 0-.7-.2-.9-.5-5.2-8.8-4.8-16.1-4.1-19.7.1-.5.6-.9 1.2-.8 11.5 2.3 17 10 19.2 14.3.1.3.1.6 0 .8-.1.3-.3.5-.6.6l-14.5 5.2c-.1.1-.2.1-.3.1zM38 21c-.5 3.4-.4 9.4 3.6 16.5l12.6-4.6C52 29 47.2 23.1 38 21z">
        </path>
        <path
            d="M39.6 43.9c-.3 0-.6-.2-.8-.4-11.2-15.7-5.8-27.9-5.5-28.4.2-.4.6-.6 1-.6 22.5 1.9 28.5 20.1 28.6 20.3.2.5-.1 1.1-.6 1.2L40 43.9h-.4zm-4.7-27.3c-.9 2.6-3.4 12.7 5.1 25.1l20.6-7.2c-1.4-3.5-7.8-16.1-25.7-17.9z">
        </path>
        <path fill="#757575" d="M66.1 35.1s5.6-17.8 27.7-19.6c0 0 5.6 12-5.4 27.4z"></path>
        <path fill="#fff"
            d="m88.4 42.9-.3-.1C96.7 28.7 91.8 18 91.8 18c-11.2 1-18.1 6-22.2 10.7 3.7-5.3 11.1-12.1 24.2-13.2 0 0 5.6 12-5.4 27.4z"
            opacity=".3"></path>
        <path fill="#757575" d="m88.1 42.8-22-7.7s.9-2.9 3.5-6.5C73.7 24 80.6 19 91.8 18c0 0 4.9 10.7-3.7 24.8z"></path>
        <path fill="#757575"
            d="M88.1 42.8c-.5.9-1.1 1.8-1.7 2.6l-22.3-7.8s1.4-4.4 5.5-9S80.6 19 91.8 18c0 0 4.9 10.7-3.7 24.8z"></path>
        <path fill="#e57373" d="M71.2 33.3c2.2-4.1 7.7-11.9 19.6-14.1.7 3.6 1.1 10.8-4.2 19.5z"></path>
        <path
            d="M86.8 39.7c-.1 0-.2 0-.3-.1l-14.6-5.2c-.3-.1-.5-.3-.6-.6s-.1-.6 0-.8c2.2-4.4 7.7-12 19.3-14.2.5-.1 1.1.2 1.2.8.7 3.5 1.1 10.8-4.1 19.7-.3.3-.6.4-.9.4zm-13.2-6.8 12.8 4.6c4.1-7.2 4.1-13.1 3.6-16.5-9.3 2.1-14.2 8-16.4 11.9z">
        </path>
        <path
            d="M88.4 43.9c-.1 0-.2 0-.3-.1L65.8 36c-.5-.2-.8-.7-.6-1.2.1-.2 6.1-18.4 28.6-20.3.4 0 .8.2 1 .6.2.5 5.7 12.7-5.5 28.4-.3.3-.6.4-.9.4zm-21-9.4L88 41.7c8.6-12.5 6-22.6 5.2-25.2-18 1.9-24.4 14.5-25.8 18z">
        </path>
        <path
            d="m62.4 36.3-22.3 7.8c-2.2-3-3.7-5.9-4.7-8.6 2-3.5 6.5-8.5 16.9-12.5 7.7 5.8 10.1 13.3 10.1 13.3zM64.6 36.3l22.3 7.8c2.2-3 3.7-5.9 4.7-8.6-2-3.5-6.5-8.5-16.8-12.5-7.8 5.8-10.2 13.3-10.2 13.3z"
            opacity=".3"></path>
        <path fill="#757575"
            d="M84.4 90c-.3 2.9-2 5.5-4.3 7.7-3.6 3.4-8.9 5.5-13 5.5h-6.2c-4.6 0-10.8-2.7-14.4-6.9-1.6-1.8-2.6-3.9-2.9-6.2-.4-5.8 1-11.8 4.1-17h32.6c3.1 5.1 4.4 11 4.1 16.9z">
        </path>
        <path fill="#fff"
            d="M80.1 97.7c-3.6 3.4-8.9 5.5-13 5.5h-6.2c-4.6 0-10.8-2.7-14.4-6.9 1.8-6.7 8.5-11.6 16.6-11.6 8.7-.1 15.9 5.6 17 13z">
        </path>
        <path
            d="M84.4 90c-.3 2.9-2 5.6-4.3 7.7-3.6 3.4-8.9 5.5-13 5.5h-6.2c-4.6 0-10.8-2.7-14.4-6.9-1.6-1.8-2.6-3.9-2.9-6.2-.1-1.2-.1-2.4 0-3.6v.1c.3 2.3 1.3 4.4 2.9 6.3 3.6 4.2 9.8 6.9 14.4 6.9h6.2c4.1 0 9.4-2.1 13-5.5 2.3-2.1 3.9-4.7 4.3-7.7v-.1z"
            opacity=".3"></path>
        <path
            d="M60.8 104.1c-6.6 0-17.2-5.6-18.2-14-.4-6.2 1-12.3 4.2-17.6.2-.3.5-.5.9-.5h32.6c.4 0 .7.2.9.5 3.2 5.3 4.6 11.4 4.2 17.6-.9 8.5-11.6 14.1-18.2 14.1H60.8c.1-.1.1-.1 0-.1zm6.3-2c6.1 0 15.5-5.1 16.3-12.3.4-5.5-.9-11-3.6-15.9H48.3c-2.7 4.9-4 10.4-3.6 16 .8 7.1 10.2 12.2 16.2 12.2h.1z">
        </path>
        <path fill="#d50000" d="M39.8 76.3s21.3 15.4 49.6 0l-4.5-6.4-36-.5z"></path>
        <path
            d="M64.1 84.1c-14.9 0-24.7-6.9-24.8-7-.3-.2-.4-.5-.4-.8s.1-.6.4-.8l9.1-6.9c.2-.1.4-.2.6-.2l36 .5c.3 0 .6.2.8.4l4.5 6.4c.2.2.2.5.2.8s-.2.5-.5.7c-9.7 5.2-18.4 6.9-25.9 6.9zm-22.5-7.9c4.7 2.8 23.1 11.9 46.3-.2l-3.6-5.1-35.1-.5z">
        </path>
        <circle cx="63.3" cy="83.2" r="3.5" fill="#ffc400"></circle>
        <path
            d="M63.3 87.7c-2.5 0-4.5-2-4.5-4.5s2-4.5 4.5-4.5 4.5 2 4.5 4.5-2 4.5-4.5 4.5zm0-7.1c-1.4 0-2.5 1.1-2.5 2.5s1.1 2.5 2.5 2.5 2.5-1.1 2.5-2.5-1.1-2.5-2.5-2.5z">
        </path>
        <path fill="#eee"
            d="M92.2 63.9s4.4 3.1 5.7 6c0 0-11.4 8.1-33.9 9.2-22.4-1.1-33.9-9.2-33.9-9.2 1.3-2.9 5.7-6 5.7-6-5.3.6-8-3.6-8-3.6s2-.8 4.4-4.5c1.9-3 4.2-7.8 5.8-15.6C41.5 22.9 64 24 64 24s22.5-1.1 26.1 16.3c1.6 7.8 3.8 12.7 5.8 15.6 2.4 3.7 4.4 4.5 4.4 4.5s-2.8 4.1-8.1 3.5z">
        </path>
        <path
            d="M97.9 69.9S86.5 78 64 79.1c-22.4-1.1-33.9-9.2-33.9-9.2.5-1.1 1.4-2.1 2.3-3.1 4.4 2.4 15 7 31.5 7.8 16.6-.8 27.2-5.5 31.5-7.8 1.1 1 2 2.1 2.5 3.1z"
            opacity=".3"></path>
        <path fill="#757575"
            d="M95.9 55.9c-4.1.5-10.6.4-16.4-2.8-9.6-5.3-15.5-4.4-15.5-4.4s-5.9-.9-15.5 4.4c-5.8 3.2-12.2 3.3-16.4 2.8.9-1.3 1.8-3 2.7-5.1.5-1.2 1-2.6 1.5-4.1.2-.5.3-1.1.5-1.7.4-1.2.7-2.6 1-4 .1-.2.1-.5.2-.7 1.7-8.4 7.9-12.5 13.8-14.4 1.8-.6 3.7-1 5.3-1.3 1.4-.2 2.7-.4 3.7-.4 2-.1 3.2-.1 3.2-.1s1.3-.1 3.2.1c1.1.1 2.3.2 3.7.4 1.6.3 3.5.7 5.3 1.3 5.9 2 12 6 13.8 14.4 1.7 7.8 3.9 12.6 5.9 15.6z">
        </path>
        <path fill="#fff"
            d="M95.9 55.9c-.5.1-1 .1-1.6.1-1.5-3-3-7.1-4.2-12.8-1.7-8.4-7.9-12.5-13.8-14.4-1.8-.6-3.7-1-5.3-1.3-1.4-.2-2.7-.4-3.7-.4-2-.2-3.3-.1-3.3-.1s-1.3-.1-3.2.1c-1.1.1-2.3.2-3.7.4-1.6.3-3.5.7-5.3 1.3-5.9 2-12 6-13.8 14.4-.1.2-.1.5-.2.7-.3 1.4-.6 2.8-1 4-.2.6-.3 1.1-.5 1.7-.5 1.5-1 2.9-1.5 4.1-.3.8-.7 1.6-1 2.2-.6 0-1.1-.1-1.6-.1.9-1.3 1.8-3 2.7-5.1.5-1.2 1-2.6 1.5-4.1.2-.5.3-1.1.5-1.7.4-1.2.7-2.6 1-4 .1-.2.1-.5.2-.7 1.7-8.4 7.9-12.5 13.8-14.4 1.8-.6 3.7-1 5.3-1.3 1.4-.2 2.7-.4 3.7-.4 2-.1 3.2-.1 3.2-.1s1.3-.1 3.2.1c1.1.1 2.3.2 3.7.4 1.6.3 3.5.7 5.3 1.3 5.9 2 12 6 13.8 14.4 1.6 7.9 3.8 12.7 5.8 15.7z"
            opacity=".3"></path>
        <path fill="#616161"
            d="M67.4 27.7c0 6.1-1.5 11.1-3.4 11.1s-3.4-5-3.4-11.1c0-1.3.1-2.5.2-3.7 2-.1 3.2-.1 3.2-.1s1.3-.1 3.2.1c.2 1.2.2 2.5.2 3.7zM57 24.5c-.3 4.7-1.4 8.2-2.7 8.2-1.2 0-2.2-2.9-2.6-6.9 1.9-.6 3.7-1 5.3-1.3zM76.3 25.8c-.4 4.1-1.4 6.9-2.6 6.9-1.3 0-2.4-3.5-2.7-8.3 1.6.4 3.4.8 5.3 1.4zM42.9 43c0 1.1-2.7 2-6.1 2 .4-1.2.7-2.6 1-4 2.9.2 5.1 1 5.1 2zM44.1 48.8c0 1.1-3.6 2-8.1 2h-1.2c.5-1.2 1-2.6 1.5-4.1 4.3 0 7.8 1 7.8 2.1zM85.1 43c0 1.1 2.7 2 6.1 2-.4-1.2-.7-2.6-1-4-2.9.2-5.1 1-5.1 2zM83.9 48.8c0 1.1 3.6 2 8.1 2h1.2c-.5-1.2-1-2.6-1.5-4.1-4.3 0-7.8 1-7.8 2.1z">
        </path>
        <path
            d="M64 80.1C41.5 79 30 71 29.6 70.7s-.5-.8-.3-1.2c.8-1.7 2.5-3.4 3.9-4.7-4-.7-6.1-3.7-6.2-3.9-.2-.2-.2-.6-.1-.8.1-.3.3-.5.6-.6 0 0 6.2-2.9 9.6-19.4C40.7 22 63.8 23 64 23c.1 0 23.3-.9 27 17.1 3.4 16.5 9.5 19.4 9.6 19.4.3.1.5.4.6.6.1.3 0 .6-.1.8s-2.2 3.2-6.2 3.9c1.4 1.2 3.1 3 3.9 4.7.2.4.1.9-.3 1.2-.5.4-12 8.3-34.5 9.4zM31.5 69.6c2.9 1.7 13.9 7.6 32.5 8.6 18.7-.9 29.7-6.8 32.5-8.6-1.3-2-3.9-4.1-4.9-4.8-.4-.3-.5-.7-.4-1.2.2-.4.6-.7 1-.6 3.3.4 5.4-1.3 6.4-2.3-2.1-1.6-6.8-6.5-9.6-20.2C85.7 24.1 64.3 25 64 25s-21.8-.9-25.1 15.5c-2.8 13.6-7.5 18.6-9.7 20.2 1 1 3.2 2.7 6.4 2.3.4 0 .9.2 1 .6.2.4 0 .9-.4 1.2.2 0-3.2 2.4-4.7 4.8z">
        </path>
        <ellipse cx="46.1" cy="60.9" fill="#ff5252" rx="2.8" ry="1.9"></ellipse>
        <ellipse cx="83.9" cy="60.9" fill="#ff5252" rx="2.8" ry="1.9"></ellipse>
        <ellipse cx="49.1" cy="32.4" fill="#fff" rx="3.7" ry="2.1" transform="rotate(-27.2 49.09 32.408)"></ellipse>
        <ellipse cx="44.1" cy="37.9" fill="#fff" rx="2.3" ry="1.3" transform="rotate(-27.2 44.129 37.89)"></ellipse>
        <path fill="#757575" d="M49.6 90.4c0 3.5-2.6 6.4-5.8 6.4s-4.5-2.9-4.5-6.4 1.3-6.4 4.5-6.4 5.8 2.9 5.8 6.4z">
        </path>
        <path
            d="M49.6 90.4c0 3.5-2.6 6.4-5.8 6.4h-.6c2.3-.8 4-3.3 4-6.1 0-3.3-2.3-6-5.1-6.4.5-.2 1-.3 1.7-.3 3.2 0 5.8 2.9 5.8 6.4z"
            opacity=".3"></path>
        <path fill="#fff"
            d="M44.4 96.7c-.4.1-.9.2-1.3.2-3.2 0-4.5-2.9-4.5-6.4s1.3-6.4 4.5-6.4c.5 0 .9.1 1.3.2-2.3.6-3.3 3.2-3.3 6.3.1 2.9 1 5.5 3.3 6.1z"
            opacity=".6"></path>
        <path
            d="M43.8 97.9c-3.4 0-5.5-2.8-5.5-7.4s2.1-7.4 5.5-7.4c3.8 0 6.8 3.3 6.8 7.4s-3.1 7.4-6.8 7.4zm0-12.9c-3 0-3.5 3.4-3.5 5.4s.5 5.4 3.5 5.4c2.6 0 4.8-2.4 4.8-5.4S46.4 85 43.8 85z">
        </path>
        <path fill="#757575" d="M78.4 90.4c0 3.5 2.6 6.4 5.8 6.4s4.5-2.9 4.5-6.4-1.3-6.4-4.5-6.4-5.8 2.9-5.8 6.4z">
        </path>
        <path
            d="M78.4 90.4c0 3.5 2.6 6.4 5.8 6.4h.6c-2.3-.8-4-3.3-4-6.1 0-3.3 2.3-6 5.1-6.4-.5-.2-1-.3-1.7-.3-3.2 0-5.8 2.9-5.8 6.4z"
            opacity=".3"></path>
        <path fill="#fff"
            d="M83.6 96.7c.4.1.9.2 1.3.2 3.2 0 4.5-2.9 4.5-6.4s-1.3-6.4-4.5-6.4c-.5 0-.9.1-1.3.2 2.3.6 3.3 3.2 3.3 6.3-.1 2.9-1 5.5-3.3 6.1z"
            opacity=".6"></path>
        <path
            d="M84.2 97.9c-3.8 0-6.8-3.3-6.8-7.4s3.1-7.4 6.8-7.4c3.4 0 5.5 2.8 5.5 7.4s-2 7.4-5.5 7.4zm0-12.9c-2.6 0-4.8 2.4-4.8 5.4s2.2 5.4 4.8 5.4c3 0 3.5-3.4 3.5-5.4s-.4-5.4-3.5-5.4zM60.1 63c-.4 0-.9-.1-1.4-.2-1.2-.3-2.5-1-3.8-2.1-.4-.4-.5-1-.1-1.4s1-.5 1.4-.1c1.1.9 2.1 1.5 3 1.7 2.1.5 3.2-.8 3.4-1.1.1-.5.5-.8 1-.8.6 0 1 .4 1 1 0 .9-1.1 1.8-1.3 1.9-.5.5-1.6 1.1-3.2 1.1z">
        </path>
        <path
            d="M67.1 63c-1.5 0-2.6-.6-3.1-1-.6-.5-1.3-1.3-1.3-2 0-.6.4-1 1-1 .5 0 .9.3 1 .8.2.4 1.4 1.7 3.6 1.1.9-.3 1.9-.8 2.9-1.6.4-.4 1.1-.3 1.4.1.4.4.3 1.1-.1 1.4-1.2 1-2.4 1.7-3.6 2-.8.1-1.3.2-1.8.2z">
        </path>
        <path fill="#ff5252"
            d="M68.7 64.2c0 3.9-2.2 7.1-5 7.1s-5-3.2-5-7.1c0-.8.1-1.6.3-2.3 3 .7 4.6-1.5 4.6-1.9 0 .4 1.7 2.7 4.8 1.8.2.7.3 1.6.3 2.4z">
        </path>
        <path
            d="M63.7 72.3c-3.3 0-6-3.6-6-8.1 0-.9.1-1.8.3-2.6.1-.5.7-.9 1.2-.7 2 .5 3.2-.8 3.4-1.1.1-.5.5-.8 1-.8s.9.3 1 .8c.2.4 1.4 1.7 3.6 1.1.3-.1.5 0 .8.1.2.1.4.4.5.6.2.8.3 1.7.3 2.6-.1 4.5-2.8 8.1-6.1 8.1zM59.8 63c0 .4-.1.8-.1 1.2 0 3.3 1.8 6.1 4 6.1s4-2.8 4-6.1c0-.4 0-.8-.1-1.2-1.8.2-3-.5-3.7-1l-.3-.3c-.1.1-.2.2-.3.2-.6.5-1.8 1.2-3.5 1.1z">
        </path>
        <path fill="#212121"
            d="M67.3 56.6c0 1.6-1.7 3.4-3.7 3.4-2.1 0-3.7-1.8-3.7-3.4s1.7-1.3 3.7-1.3c2.1-.1 3.7-.3 3.7 1.3z"></path>
        <path d="M58.4 44.5c0 3.1-2.5 5.6-5.6 5.6s-5.6-2.5-5.6-5.6c0-1.8.9-3.4 2.2-4.5l8.4 1.9c.4.8.6 1.6.6 2.6z">
        </path>
        <circle cx="55.3" cy="44.5" r="1.7" fill="#fff"></circle>
        <path d="M80 44.5c0 3.1-2.5 5.6-5.6 5.6s-5.6-2.5-5.6-5.6c0-.9.2-1.8.6-2.6l8.4-1.9c1.3 1 2.2 2.6 2.2 4.5z">
        </path>
        <circle cx="76.9" cy="44.5" r="1.7" fill="#fff"></circle>
        <ellipse cx="62.4" cy="57.1" fill="#eee" opacity=".6" rx="1.3" ry="1"></ellipse>
    </g>
</svg>